<svg width="600" height="300" viewBox="0 0 600 300" fill="none" xmlns="http://www.w3.org/2000/svg">
<rect width="600" height="300" fill="white"/>
<path d="M0 242C0 209.967 25.9675 184 58 184H600V300H0V242Z" fill="#262261"/>
<path fill-rule="evenodd" clip-rule="evenodd" d="M86.1929 245.607C81.1035 245.607 75.9329 242.586 72.9153 238.587C58.4376 238.587 58 259.269 58 259.269H114.382C114.382 259.269 115.519 238.495 99.2376 238.495C96.2235 242.544 91.2824 245.607 86.1929 245.607Z" fill="#F47920"/>
<path fill-rule="evenodd" clip-rule="evenodd" d="M98.32 220.813C98.32 226.764 92.8882 238.142 86.1823 238.142C79.4871 238.142 74.0518 226.76 74.0518 220.813C74.0518 214.866 79.4835 210.038 86.1823 210.038C92.8882 210.041 98.32 214.869 98.32 220.813Z" fill="#F47920"/>
<path fill-rule="evenodd" clip-rule="evenodd" d="M103.734 215.678C103.734 214.562 102.181 213.662 100.254 213.655V211.358C100.254 211.015 100.385 203 86.2247 203C72.0717 203 72.2023 211.015 72.2023 211.358V213.736C72.167 213.736 72.1388 213.726 72.107 213.726C70.1905 213.726 68.6482 214.612 68.6482 215.709V225.429C68.6482 226.52 70.1941 227.409 72.107 227.409C74.02 227.409 75.5729 226.52 75.5729 225.429V215.709C75.5729 215.558 75.4776 215.42 75.4211 215.279V212.628C75.4211 212.385 74.4047 206.335 86.2247 206.335C98.0482 206.335 96.82 212.385 96.82 212.628V215.42C96.7988 215.508 96.7317 215.586 96.7317 215.678V225.62C96.7317 226.739 98.2953 227.646 100.233 227.646C100.275 227.646 100.307 227.632 100.349 227.632V231.264H96.8764V234.687H103.769L103.734 215.678Z" fill="#F47920"/>
<path d="M163.918 214.656H160.185C160.116 214.173 159.977 213.744 159.767 213.369C159.557 212.989 159.287 212.665 158.957 212.398C158.628 212.131 158.247 211.926 157.815 211.784C157.389 211.642 156.926 211.571 156.426 211.571C155.523 211.571 154.736 211.795 154.065 212.244C153.395 212.687 152.875 213.335 152.506 214.188C152.136 215.034 151.952 216.062 151.952 217.273C151.952 218.517 152.136 219.562 152.506 220.409C152.881 221.256 153.403 221.895 154.074 222.327C154.744 222.759 155.52 222.974 156.401 222.974C156.895 222.974 157.352 222.909 157.773 222.778C158.199 222.648 158.577 222.457 158.906 222.207C159.236 221.952 159.509 221.642 159.724 221.278C159.946 220.915 160.099 220.5 160.185 220.034L163.918 220.051C163.821 220.852 163.58 221.625 163.193 222.369C162.813 223.108 162.298 223.77 161.651 224.355C161.009 224.935 160.241 225.395 159.349 225.736C158.463 226.071 157.46 226.239 156.341 226.239C154.784 226.239 153.392 225.886 152.165 225.182C150.943 224.477 149.977 223.457 149.267 222.122C148.562 220.787 148.21 219.17 148.21 217.273C148.21 215.369 148.568 213.75 149.284 212.415C150 211.08 150.972 210.062 152.199 209.364C153.426 208.659 154.807 208.307 156.341 208.307C157.352 208.307 158.29 208.449 159.153 208.733C160.023 209.017 160.793 209.432 161.463 209.977C162.134 210.517 162.679 211.179 163.099 211.963C163.526 212.747 163.798 213.645 163.918 214.656ZM174.891 220.426V212.909H178.521V226H175.036V223.622H174.899C174.604 224.389 174.112 225.006 173.425 225.472C172.743 225.937 171.911 226.17 170.928 226.17C170.053 226.17 169.283 225.972 168.618 225.574C167.953 225.176 167.433 224.611 167.058 223.878C166.689 223.145 166.501 222.267 166.496 221.244V212.909H170.126V220.597C170.132 221.369 170.339 221.98 170.749 222.429C171.158 222.878 171.706 223.102 172.393 223.102C172.831 223.102 173.24 223.003 173.621 222.804C174.001 222.599 174.308 222.298 174.541 221.901C174.78 221.503 174.896 221.011 174.891 220.426ZM192.317 216.642L188.994 216.847C188.937 216.562 188.815 216.307 188.627 216.08C188.44 215.847 188.192 215.662 187.886 215.526C187.585 215.384 187.224 215.312 186.803 215.312C186.241 215.312 185.766 215.432 185.38 215.67C184.994 215.903 184.8 216.216 184.8 216.608C184.8 216.92 184.925 217.185 185.175 217.401C185.425 217.616 185.854 217.79 186.462 217.92L188.832 218.398C190.104 218.659 191.053 219.08 191.678 219.659C192.303 220.239 192.616 221 192.616 221.943C192.616 222.801 192.363 223.554 191.857 224.202C191.357 224.849 190.67 225.355 189.795 225.719C188.925 226.077 187.923 226.256 186.786 226.256C185.053 226.256 183.673 225.895 182.644 225.173C181.621 224.446 181.022 223.457 180.846 222.207L184.417 222.02C184.525 222.548 184.786 222.952 185.201 223.23C185.616 223.503 186.147 223.639 186.795 223.639C187.431 223.639 187.942 223.517 188.329 223.273C188.721 223.023 188.92 222.702 188.925 222.31C188.92 221.98 188.781 221.71 188.508 221.5C188.235 221.284 187.815 221.119 187.246 221.006L184.979 220.554C183.701 220.298 182.749 219.855 182.124 219.224C181.505 218.594 181.195 217.79 181.195 216.812C181.195 215.972 181.423 215.247 181.877 214.639C182.337 214.031 182.982 213.562 183.812 213.233C184.647 212.903 185.624 212.739 186.744 212.739C188.397 212.739 189.698 213.088 190.647 213.787C191.602 214.486 192.158 215.437 192.317 216.642ZM201.865 212.909V215.636H193.982V212.909H201.865ZM195.771 209.773H199.402V221.977C199.402 222.312 199.453 222.574 199.555 222.761C199.658 222.943 199.8 223.071 199.982 223.145C200.169 223.219 200.385 223.256 200.629 223.256C200.8 223.256 200.97 223.241 201.141 223.213C201.311 223.179 201.442 223.153 201.533 223.136L202.104 225.838C201.922 225.895 201.666 225.96 201.337 226.034C201.007 226.114 200.607 226.162 200.135 226.179C199.26 226.213 198.493 226.097 197.834 225.83C197.18 225.562 196.672 225.148 196.308 224.585C195.945 224.023 195.766 223.312 195.771 222.455V209.773ZM210.004 226.256C208.68 226.256 207.536 225.974 206.57 225.412C205.609 224.844 204.868 224.054 204.345 223.043C203.822 222.026 203.561 220.847 203.561 219.506C203.561 218.153 203.822 216.972 204.345 215.96C204.868 214.943 205.609 214.153 206.57 213.591C207.536 213.023 208.68 212.739 210.004 212.739C211.328 212.739 212.47 213.023 213.43 213.591C214.396 214.153 215.141 214.943 215.663 215.96C216.186 216.972 216.447 218.153 216.447 219.506C216.447 220.847 216.186 222.026 215.663 223.043C215.141 224.054 214.396 224.844 213.43 225.412C212.47 225.974 211.328 226.256 210.004 226.256ZM210.021 223.443C210.624 223.443 211.126 223.273 211.53 222.932C211.933 222.585 212.237 222.114 212.442 221.517C212.652 220.92 212.757 220.241 212.757 219.48C212.757 218.719 212.652 218.04 212.442 217.443C212.237 216.847 211.933 216.375 211.53 216.028C211.126 215.682 210.624 215.509 210.021 215.509C209.413 215.509 208.902 215.682 208.487 216.028C208.078 216.375 207.768 216.847 207.558 217.443C207.354 218.04 207.251 218.719 207.251 219.48C207.251 220.241 207.354 220.92 207.558 221.517C207.768 222.114 208.078 222.585 208.487 222.932C208.902 223.273 209.413 223.443 210.021 223.443ZM218.808 226V212.909H222.268V215.219H222.422C222.695 214.452 223.149 213.847 223.786 213.403C224.422 212.96 225.183 212.739 226.07 212.739C226.967 212.739 227.732 212.963 228.362 213.412C228.993 213.855 229.413 214.457 229.624 215.219H229.76C230.027 214.469 230.51 213.869 231.209 213.42C231.913 212.966 232.746 212.739 233.706 212.739C234.928 212.739 235.919 213.128 236.68 213.906C237.447 214.679 237.831 215.776 237.831 217.196V226H234.209V217.912C234.209 217.185 234.016 216.639 233.629 216.276C233.243 215.912 232.76 215.73 232.18 215.73C231.521 215.73 231.007 215.94 230.638 216.361C230.268 216.776 230.084 217.324 230.084 218.006V226H226.564V217.835C226.564 217.193 226.379 216.682 226.01 216.301C225.646 215.92 225.166 215.73 224.57 215.73C224.166 215.73 223.803 215.832 223.479 216.037C223.161 216.236 222.908 216.517 222.72 216.881C222.533 217.239 222.439 217.659 222.439 218.142V226H218.808ZM246.665 226.256C245.318 226.256 244.159 225.983 243.188 225.438C242.222 224.886 241.477 224.108 240.955 223.102C240.432 222.091 240.17 220.895 240.17 219.514C240.17 218.168 240.432 216.986 240.955 215.969C241.477 214.952 242.213 214.159 243.162 213.591C244.116 213.023 245.236 212.739 246.52 212.739C247.384 212.739 248.188 212.878 248.932 213.156C249.682 213.429 250.335 213.841 250.892 214.392C251.455 214.943 251.892 215.636 252.205 216.472C252.517 217.301 252.673 218.273 252.673 219.386V220.384H241.619V218.134H249.256C249.256 217.611 249.142 217.148 248.915 216.744C248.688 216.341 248.372 216.026 247.969 215.798C247.571 215.565 247.108 215.449 246.58 215.449C246.028 215.449 245.54 215.577 245.114 215.832C244.693 216.082 244.364 216.42 244.125 216.847C243.886 217.267 243.764 217.736 243.759 218.253V220.392C243.759 221.04 243.878 221.599 244.116 222.071C244.361 222.543 244.705 222.906 245.148 223.162C245.591 223.418 246.116 223.545 246.724 223.545C247.128 223.545 247.497 223.489 247.832 223.375C248.168 223.261 248.455 223.091 248.693 222.864C248.932 222.636 249.114 222.358 249.239 222.028L252.597 222.25C252.426 223.057 252.077 223.761 251.548 224.364C251.026 224.96 250.349 225.426 249.52 225.761C248.696 226.091 247.744 226.256 246.665 226.256ZM255.043 226V212.909H258.562V215.193H258.699C258.938 214.381 259.338 213.767 259.901 213.352C260.463 212.932 261.111 212.722 261.844 212.722C262.026 212.722 262.222 212.733 262.432 212.756C262.642 212.778 262.827 212.81 262.986 212.849V216.071C262.815 216.02 262.58 215.974 262.278 215.935C261.977 215.895 261.702 215.875 261.452 215.875C260.918 215.875 260.44 215.991 260.02 216.224C259.605 216.452 259.276 216.77 259.031 217.179C258.793 217.588 258.673 218.06 258.673 218.594V226H255.043ZM285.886 214.656H282.153C282.085 214.173 281.946 213.744 281.736 213.369C281.526 212.989 281.256 212.665 280.926 212.398C280.597 212.131 280.216 211.926 279.784 211.784C279.358 211.642 278.895 211.571 278.395 211.571C277.491 211.571 276.705 211.795 276.034 212.244C275.364 212.687 274.844 213.335 274.474 214.188C274.105 215.034 273.92 216.062 273.92 217.273C273.92 218.517 274.105 219.562 274.474 220.409C274.849 221.256 275.372 221.895 276.043 222.327C276.713 222.759 277.489 222.974 278.369 222.974C278.864 222.974 279.321 222.909 279.741 222.778C280.168 222.648 280.545 222.457 280.875 222.207C281.205 221.952 281.477 221.642 281.693 221.278C281.915 220.915 282.068 220.5 282.153 220.034L285.886 220.051C285.79 220.852 285.548 221.625 285.162 222.369C284.781 223.108 284.267 223.77 283.619 224.355C282.977 224.935 282.21 225.395 281.318 225.736C280.432 226.071 279.429 226.239 278.31 226.239C276.753 226.239 275.361 225.886 274.134 225.182C272.912 224.477 271.946 223.457 271.236 222.122C270.531 220.787 270.179 219.17 270.179 217.273C270.179 215.369 270.537 213.75 271.253 212.415C271.969 211.08 272.94 210.062 274.168 209.364C275.395 208.659 276.776 208.307 278.31 208.307C279.321 208.307 280.259 208.449 281.122 208.733C281.991 209.017 282.761 209.432 283.432 209.977C284.102 210.517 284.648 211.179 285.068 211.963C285.494 212.747 285.767 213.645 285.886 214.656ZM292.197 226.247C291.362 226.247 290.618 226.102 289.964 225.812C289.311 225.517 288.794 225.082 288.413 224.509C288.038 223.929 287.851 223.207 287.851 222.344C287.851 221.616 287.984 221.006 288.251 220.511C288.518 220.017 288.882 219.619 289.342 219.318C289.803 219.017 290.325 218.79 290.911 218.636C291.501 218.483 292.121 218.375 292.768 218.312C293.53 218.233 294.143 218.159 294.609 218.091C295.075 218.017 295.413 217.909 295.624 217.767C295.834 217.625 295.939 217.415 295.939 217.136V217.085C295.939 216.545 295.768 216.128 295.428 215.832C295.092 215.537 294.615 215.389 293.996 215.389C293.342 215.389 292.822 215.534 292.436 215.824C292.05 216.108 291.794 216.466 291.669 216.898L288.311 216.625C288.482 215.83 288.817 215.142 289.317 214.562C289.817 213.977 290.462 213.528 291.251 213.216C292.047 212.898 292.967 212.739 294.013 212.739C294.74 212.739 295.436 212.824 296.101 212.994C296.771 213.165 297.365 213.429 297.882 213.787C298.405 214.145 298.817 214.605 299.118 215.168C299.419 215.724 299.57 216.392 299.57 217.17V226H296.126V224.185H296.024C295.814 224.594 295.533 224.955 295.18 225.267C294.828 225.574 294.405 225.815 293.911 225.991C293.416 226.162 292.845 226.247 292.197 226.247ZM293.237 223.741C293.771 223.741 294.243 223.636 294.652 223.426C295.061 223.21 295.382 222.92 295.615 222.557C295.848 222.193 295.964 221.781 295.964 221.321V219.932C295.851 220.006 295.695 220.074 295.496 220.136C295.303 220.193 295.084 220.247 294.839 220.298C294.595 220.344 294.351 220.386 294.107 220.426C293.862 220.46 293.641 220.491 293.442 220.52C293.016 220.582 292.643 220.682 292.325 220.818C292.007 220.955 291.76 221.139 291.584 221.372C291.408 221.599 291.32 221.884 291.32 222.224C291.32 222.719 291.499 223.097 291.857 223.358C292.22 223.614 292.68 223.741 293.237 223.741ZM302.386 226V212.909H305.906V215.193H306.043C306.281 214.381 306.682 213.767 307.244 213.352C307.807 212.932 308.455 212.722 309.188 212.722C309.369 212.722 309.565 212.733 309.776 212.756C309.986 212.778 310.17 212.81 310.33 212.849V216.071C310.159 216.02 309.923 215.974 309.622 215.935C309.321 215.895 309.045 215.875 308.795 215.875C308.261 215.875 307.784 215.991 307.364 216.224C306.949 216.452 306.619 216.77 306.375 217.179C306.136 217.588 306.017 218.06 306.017 218.594V226H302.386ZM317.563 226.256C316.217 226.256 315.058 225.983 314.086 225.438C313.12 224.886 312.376 224.108 311.853 223.102C311.33 222.091 311.069 220.895 311.069 219.514C311.069 218.168 311.33 216.986 311.853 215.969C312.376 214.952 313.112 214.159 314.06 213.591C315.015 213.023 316.134 212.739 317.418 212.739C318.282 212.739 319.086 212.878 319.83 213.156C320.58 213.429 321.234 213.841 321.79 214.392C322.353 214.943 322.79 215.636 323.103 216.472C323.415 217.301 323.572 218.273 323.572 219.386V220.384H312.518V218.134H320.154C320.154 217.611 320.04 217.148 319.813 216.744C319.586 216.341 319.271 216.026 318.867 215.798C318.469 215.565 318.006 215.449 317.478 215.449C316.927 215.449 316.438 215.577 316.012 215.832C315.592 216.082 315.262 216.42 315.023 216.847C314.785 217.267 314.663 217.736 314.657 218.253V220.392C314.657 221.04 314.776 221.599 315.015 222.071C315.259 222.543 315.603 222.906 316.046 223.162C316.489 223.418 317.015 223.545 317.623 223.545C318.026 223.545 318.396 223.489 318.731 223.375C319.066 223.261 319.353 223.091 319.592 222.864C319.83 222.636 320.012 222.358 320.137 222.028L323.495 222.25C323.325 223.057 322.975 223.761 322.447 224.364C321.924 224.96 321.248 225.426 320.418 225.761C319.594 226.091 318.643 226.256 317.563 226.256ZM331.564 226V208.545H335.254V215.747H342.746V208.545H346.428V226H342.746V218.79H335.254V226H331.564ZM355.317 226.256C353.993 226.256 352.848 225.974 351.882 225.412C350.922 224.844 350.18 224.054 349.658 223.043C349.135 222.026 348.874 220.847 348.874 219.506C348.874 218.153 349.135 216.972 349.658 215.96C350.18 214.943 350.922 214.153 351.882 213.591C352.848 213.023 353.993 212.739 355.317 212.739C356.641 212.739 357.783 213.023 358.743 213.591C359.709 214.153 360.453 214.943 360.976 215.96C361.499 216.972 361.76 218.153 361.76 219.506C361.76 220.847 361.499 222.026 360.976 223.043C360.453 224.054 359.709 224.844 358.743 225.412C357.783 225.974 356.641 226.256 355.317 226.256ZM355.334 223.443C355.936 223.443 356.439 223.273 356.842 222.932C357.246 222.585 357.55 222.114 357.754 221.517C357.964 220.92 358.07 220.241 358.07 219.48C358.07 218.719 357.964 218.04 357.754 217.443C357.55 216.847 357.246 216.375 356.842 216.028C356.439 215.682 355.936 215.509 355.334 215.509C354.726 215.509 354.214 215.682 353.8 216.028C353.391 216.375 353.081 216.847 352.871 217.443C352.666 218.04 352.564 218.719 352.564 219.48C352.564 220.241 352.666 220.92 352.871 221.517C353.081 222.114 353.391 222.585 353.8 222.932C354.214 223.273 354.726 223.443 355.334 223.443ZM371.084 212.909V215.636H363.2V212.909H371.084ZM364.99 209.773H368.621V221.977C368.621 222.312 368.672 222.574 368.774 222.761C368.876 222.943 369.018 223.071 369.2 223.145C369.388 223.219 369.604 223.256 369.848 223.256C370.018 223.256 370.189 223.241 370.359 223.213C370.53 223.179 370.661 223.153 370.751 223.136L371.322 225.838C371.141 225.895 370.885 225.96 370.555 226.034C370.226 226.114 369.825 226.162 369.354 226.179C368.479 226.213 367.712 226.097 367.053 225.83C366.399 225.562 365.891 225.148 365.527 224.585C365.163 224.023 364.984 223.312 364.99 222.455V209.773ZM377.361 208.545V226H373.73V208.545H377.361ZM380.269 226V212.909H383.9V226H380.269ZM382.093 211.222C381.553 211.222 381.09 211.043 380.704 210.685C380.323 210.321 380.133 209.886 380.133 209.381C380.133 208.881 380.323 208.452 380.704 208.094C381.09 207.73 381.553 207.548 382.093 207.548C382.633 207.548 383.093 207.73 383.474 208.094C383.86 208.452 384.053 208.881 384.053 209.381C384.053 209.886 383.86 210.321 383.474 210.685C383.093 211.043 382.633 211.222 382.093 211.222ZM390.439 218.432V226H386.808V212.909H390.268V215.219H390.422C390.712 214.457 391.197 213.855 391.879 213.412C392.561 212.963 393.388 212.739 394.359 212.739C395.268 212.739 396.061 212.938 396.737 213.335C397.413 213.733 397.939 214.301 398.314 215.04C398.689 215.773 398.876 216.648 398.876 217.665V226H395.246V218.312C395.251 217.511 395.047 216.886 394.632 216.438C394.217 215.983 393.646 215.756 392.919 215.756C392.43 215.756 391.999 215.861 391.624 216.071C391.254 216.281 390.964 216.588 390.754 216.991C390.55 217.389 390.445 217.869 390.439 218.432ZM407.704 226.256C406.357 226.256 405.198 225.983 404.227 225.438C403.261 224.886 402.516 224.108 401.994 223.102C401.471 222.091 401.21 220.895 401.21 219.514C401.21 218.168 401.471 216.986 401.994 215.969C402.516 214.952 403.252 214.159 404.201 213.591C405.156 213.023 406.275 212.739 407.559 212.739C408.423 212.739 409.227 212.878 409.971 213.156C410.721 213.429 411.374 213.841 411.931 214.392C412.494 214.943 412.931 215.636 413.244 216.472C413.556 217.301 413.712 218.273 413.712 219.386V220.384H402.658V218.134H410.295C410.295 217.611 410.181 217.148 409.954 216.744C409.727 216.341 409.411 216.026 409.008 215.798C408.61 215.565 408.147 215.449 407.619 215.449C407.067 215.449 406.579 215.577 406.153 215.832C405.732 216.082 405.403 216.42 405.164 216.847C404.925 217.267 404.803 217.736 404.798 218.253V220.392C404.798 221.04 404.917 221.599 405.156 222.071C405.4 222.543 405.744 222.906 406.187 223.162C406.63 223.418 407.156 223.545 407.763 223.545C408.167 223.545 408.536 223.489 408.871 223.375C409.207 223.261 409.494 223.091 409.732 222.864C409.971 222.636 410.153 222.358 410.278 222.028L413.636 222.25C413.465 223.057 413.116 223.761 412.587 224.364C412.065 224.96 411.388 225.426 410.559 225.761C409.735 226.091 408.783 226.256 407.704 226.256Z" fill="white"/>
<path d="M154.5 261.239C153.216 261.239 152.122 260.889 151.219 260.19C150.315 259.486 149.625 258.466 149.148 257.131C148.67 255.79 148.432 254.17 148.432 252.273C148.432 250.386 148.67 248.776 149.148 247.44C149.631 246.099 150.324 245.077 151.227 244.372C152.136 243.662 153.227 243.307 154.5 243.307C155.773 243.307 156.861 243.662 157.764 244.372C158.673 245.077 159.366 246.099 159.844 247.44C160.327 248.776 160.568 250.386 160.568 252.273C160.568 254.17 160.33 255.79 159.852 257.131C159.375 258.466 158.685 259.486 157.781 260.19C156.878 260.889 155.784 261.239 154.5 261.239ZM154.5 259.364C155.773 259.364 156.761 258.75 157.466 257.523C158.17 256.295 158.523 254.545 158.523 252.273C158.523 250.761 158.361 249.474 158.037 248.412C157.719 247.349 157.259 246.54 156.656 245.983C156.06 245.426 155.341 245.148 154.5 245.148C153.239 245.148 152.253 245.77 151.543 247.014C150.832 248.253 150.477 250.006 150.477 252.273C150.477 253.784 150.636 255.068 150.955 256.125C151.273 257.182 151.73 257.986 152.327 258.537C152.929 259.088 153.653 259.364 154.5 259.364ZM169.943 243.545V261H167.83V245.761H167.727L163.466 248.591V246.443L167.83 243.545H169.943ZM181.099 243.545V261H178.986V245.761H178.884L174.622 248.591V246.443L178.986 243.545H181.099ZM186.119 261V259.466L191.881 253.159C192.557 252.42 193.114 251.778 193.551 251.233C193.989 250.682 194.313 250.165 194.523 249.682C194.739 249.193 194.847 248.682 194.847 248.148C194.847 247.534 194.699 247.003 194.403 246.554C194.114 246.105 193.716 245.759 193.21 245.514C192.705 245.27 192.136 245.148 191.506 245.148C190.835 245.148 190.25 245.287 189.75 245.565C189.256 245.838 188.872 246.222 188.599 246.716C188.332 247.21 188.199 247.79 188.199 248.455H186.188C186.188 247.432 186.423 246.534 186.895 245.761C187.366 244.989 188.009 244.386 188.821 243.955C189.639 243.523 190.557 243.307 191.574 243.307C192.597 243.307 193.503 243.523 194.293 243.955C195.082 244.386 195.702 244.969 196.151 245.702C196.599 246.435 196.824 247.25 196.824 248.148C196.824 248.79 196.707 249.418 196.474 250.031C196.247 250.639 195.849 251.318 195.281 252.068C194.719 252.812 193.938 253.722 192.938 254.795L189.017 258.989V259.125H197.131V261H186.119ZM206.991 257.42V255.682L214.662 243.545H215.923V246.239H215.071L209.276 255.409V255.545H219.605V257.42H206.991ZM215.207 261V256.892V256.082V243.545H217.219V261H215.207ZM228.594 261.239C227.879 261.227 227.163 261.091 226.447 260.83C225.731 260.568 225.077 260.128 224.487 259.509C223.896 258.884 223.421 258.04 223.063 256.977C222.705 255.909 222.526 254.568 222.526 252.955C222.526 251.409 222.671 250.04 222.961 248.847C223.251 247.648 223.671 246.639 224.222 245.821C224.773 244.997 225.438 244.372 226.217 243.946C227.001 243.52 227.884 243.307 228.867 243.307C229.844 243.307 230.714 243.503 231.475 243.895C232.242 244.281 232.867 244.821 233.35 245.514C233.833 246.207 234.146 247.006 234.288 247.909H232.208C232.015 247.125 231.64 246.474 231.083 245.957C230.526 245.44 229.788 245.182 228.867 245.182C227.515 245.182 226.45 245.77 225.671 246.946C224.898 248.122 224.509 249.773 224.504 251.898H224.64C224.958 251.415 225.336 251.003 225.773 250.662C226.217 250.315 226.705 250.048 227.239 249.861C227.773 249.673 228.339 249.58 228.935 249.58C229.935 249.58 230.85 249.83 231.68 250.33C232.509 250.824 233.174 251.509 233.674 252.384C234.174 253.253 234.424 254.25 234.424 255.375C234.424 256.455 234.183 257.443 233.7 258.341C233.217 259.233 232.538 259.943 231.663 260.472C230.793 260.994 229.771 261.25 228.594 261.239ZM228.594 259.364C229.31 259.364 229.952 259.185 230.521 258.827C231.094 258.469 231.546 257.989 231.876 257.386C232.211 256.784 232.379 256.114 232.379 255.375C232.379 254.653 232.217 253.997 231.893 253.406C231.575 252.81 231.134 252.335 230.572 251.983C230.015 251.631 229.379 251.455 228.663 251.455C228.123 251.455 227.62 251.562 227.154 251.778C226.688 251.989 226.279 252.278 225.927 252.648C225.58 253.017 225.308 253.44 225.109 253.918C224.91 254.389 224.81 254.886 224.81 255.409C224.81 256.102 224.972 256.75 225.296 257.352C225.626 257.955 226.075 258.44 226.643 258.81C227.217 259.179 227.867 259.364 228.594 259.364ZM244.116 257.42V255.682L251.787 243.545H253.048V246.239H252.196L246.401 255.409V255.545H256.73V257.42H244.116ZM252.332 261V256.892V256.082V243.545H254.344V261H252.332ZM265.719 261.239C265.004 261.227 264.288 261.091 263.572 260.83C262.856 260.568 262.202 260.128 261.612 259.509C261.021 258.884 260.546 258.04 260.188 256.977C259.83 255.909 259.651 254.568 259.651 252.955C259.651 251.409 259.796 250.04 260.086 248.847C260.376 247.648 260.796 246.639 261.347 245.821C261.898 244.997 262.563 244.372 263.342 243.946C264.126 243.52 265.009 243.307 265.992 243.307C266.969 243.307 267.839 243.503 268.6 243.895C269.367 244.281 269.992 244.821 270.475 245.514C270.958 246.207 271.271 247.006 271.413 247.909H269.333C269.14 247.125 268.765 246.474 268.208 245.957C267.651 245.44 266.913 245.182 265.992 245.182C264.64 245.182 263.575 245.77 262.796 246.946C262.023 248.122 261.634 249.773 261.629 251.898H261.765C262.083 251.415 262.461 251.003 262.898 250.662C263.342 250.315 263.83 250.048 264.364 249.861C264.898 249.673 265.464 249.58 266.06 249.58C267.06 249.58 267.975 249.83 268.805 250.33C269.634 250.824 270.299 251.509 270.799 252.384C271.299 253.253 271.549 254.25 271.549 255.375C271.549 256.455 271.308 257.443 270.825 258.341C270.342 259.233 269.663 259.943 268.788 260.472C267.918 260.994 266.896 261.25 265.719 261.239ZM265.719 259.364C266.435 259.364 267.077 259.185 267.646 258.827C268.219 258.469 268.671 257.989 269.001 257.386C269.336 256.784 269.504 256.114 269.504 255.375C269.504 254.653 269.342 253.997 269.018 253.406C268.7 252.81 268.259 252.335 267.697 251.983C267.14 251.631 266.504 251.455 265.788 251.455C265.248 251.455 264.745 251.562 264.279 251.778C263.813 251.989 263.404 252.278 263.052 252.648C262.705 253.017 262.433 253.44 262.234 253.918C262.035 254.389 261.935 254.886 261.935 255.409C261.935 256.102 262.097 256.75 262.421 257.352C262.751 257.955 263.2 258.44 263.768 258.81C264.342 259.179 264.992 259.364 265.719 259.364ZM281.241 257.42V255.682L288.912 243.545H290.173V246.239H289.321L283.526 255.409V255.545H293.855V257.42H281.241ZM289.457 261V256.892V256.082V243.545H291.469V261H289.457ZM302.844 261.239C302.129 261.227 301.413 261.091 300.697 260.83C299.981 260.568 299.327 260.128 298.737 259.509C298.146 258.884 297.671 258.04 297.313 256.977C296.955 255.909 296.776 254.568 296.776 252.955C296.776 251.409 296.921 250.04 297.211 248.847C297.501 247.648 297.921 246.639 298.472 245.821C299.023 244.997 299.688 244.372 300.467 243.946C301.251 243.52 302.134 243.307 303.117 243.307C304.094 243.307 304.964 243.503 305.725 243.895C306.492 244.281 307.117 244.821 307.6 245.514C308.083 246.207 308.396 247.006 308.538 247.909H306.458C306.265 247.125 305.89 246.474 305.333 245.957C304.776 245.44 304.038 245.182 303.117 245.182C301.765 245.182 300.7 245.77 299.921 246.946C299.148 248.122 298.759 249.773 298.754 251.898H298.89C299.208 251.415 299.586 251.003 300.023 250.662C300.467 250.315 300.955 250.048 301.489 249.861C302.023 249.673 302.589 249.58 303.185 249.58C304.185 249.58 305.1 249.83 305.93 250.33C306.759 250.824 307.424 251.509 307.924 252.384C308.424 253.253 308.674 254.25 308.674 255.375C308.674 256.455 308.433 257.443 307.95 258.341C307.467 259.233 306.788 259.943 305.913 260.472C305.043 260.994 304.021 261.25 302.844 261.239ZM302.844 259.364C303.56 259.364 304.202 259.185 304.771 258.827C305.344 258.469 305.796 257.989 306.126 257.386C306.461 256.784 306.629 256.114 306.629 255.375C306.629 254.653 306.467 253.997 306.143 253.406C305.825 252.81 305.384 252.335 304.822 251.983C304.265 251.631 303.629 251.455 302.913 251.455C302.373 251.455 301.87 251.562 301.404 251.778C300.938 251.989 300.529 252.278 300.177 252.648C299.83 253.017 299.558 253.44 299.359 253.918C299.16 254.389 299.06 254.886 299.06 255.409C299.06 256.102 299.222 256.75 299.546 257.352C299.876 257.955 300.325 258.44 300.893 258.81C301.467 259.179 302.117 259.364 302.844 259.364ZM324.98 242.727L319.355 263.625H317.514L323.139 242.727H324.98ZM339.773 261.239C338.489 261.239 337.396 260.889 336.492 260.19C335.589 259.486 334.898 258.466 334.421 257.131C333.944 255.79 333.705 254.17 333.705 252.273C333.705 250.386 333.944 248.776 334.421 247.44C334.904 246.099 335.597 245.077 336.501 244.372C337.41 243.662 338.501 243.307 339.773 243.307C341.046 243.307 342.134 243.662 343.038 244.372C343.947 245.077 344.64 246.099 345.117 247.44C345.6 248.776 345.842 250.386 345.842 252.273C345.842 254.17 345.603 255.79 345.126 257.131C344.648 258.466 343.958 259.486 343.055 260.19C342.151 260.889 341.058 261.239 339.773 261.239ZM339.773 259.364C341.046 259.364 342.035 258.75 342.739 257.523C343.444 256.295 343.796 254.545 343.796 252.273C343.796 250.761 343.634 249.474 343.31 248.412C342.992 247.349 342.532 246.54 341.93 245.983C341.333 245.426 340.614 245.148 339.773 245.148C338.512 245.148 337.526 245.77 336.816 247.014C336.106 248.253 335.751 250.006 335.751 252.273C335.751 253.784 335.91 255.068 336.228 256.125C336.546 257.182 337.004 257.986 337.6 258.537C338.202 259.088 338.927 259.364 339.773 259.364ZM355.217 243.545V261H353.103V245.761H353.001L348.739 248.591V246.443L353.103 243.545H355.217ZM366.373 243.545V261H364.259V245.761H364.157L359.896 248.591V246.443L364.259 243.545H366.373ZM371.393 261V259.466L377.154 253.159C377.83 252.42 378.387 251.778 378.825 251.233C379.262 250.682 379.586 250.165 379.796 249.682C380.012 249.193 380.12 248.682 380.12 248.148C380.12 247.534 379.972 247.003 379.677 246.554C379.387 246.105 378.989 245.759 378.484 245.514C377.978 245.27 377.41 245.148 376.779 245.148C376.109 245.148 375.523 245.287 375.023 245.565C374.529 245.838 374.146 246.222 373.873 246.716C373.606 247.21 373.472 247.79 373.472 248.455H371.461C371.461 247.432 371.697 246.534 372.168 245.761C372.64 244.989 373.282 244.386 374.094 243.955C374.913 243.523 375.83 243.307 376.847 243.307C377.87 243.307 378.776 243.523 379.566 243.955C380.356 244.386 380.975 244.969 381.424 245.702C381.873 246.435 382.097 247.25 382.097 248.148C382.097 248.79 381.981 249.418 381.748 250.031C381.521 250.639 381.123 251.318 380.555 252.068C379.992 252.812 379.211 253.722 378.211 254.795L374.29 258.989V259.125H382.404V261H371.393ZM398.265 261.239C397.094 261.239 396.06 261.031 395.163 260.616C394.271 260.196 393.575 259.619 393.075 258.886C392.575 258.148 392.327 257.307 392.333 256.364C392.327 255.625 392.472 254.943 392.768 254.318C393.063 253.687 393.467 253.162 393.978 252.741C394.495 252.315 395.072 252.045 395.708 251.932V251.83C394.873 251.614 394.208 251.145 393.714 250.423C393.219 249.696 392.975 248.869 392.981 247.943C392.975 247.057 393.2 246.264 393.654 245.565C394.109 244.866 394.734 244.315 395.529 243.912C396.33 243.509 397.242 243.307 398.265 243.307C399.276 243.307 400.18 243.509 400.975 243.912C401.771 244.315 402.396 244.866 402.85 245.565C403.31 246.264 403.543 247.057 403.549 247.943C403.543 248.869 403.29 249.696 402.79 250.423C402.296 251.145 401.64 251.614 400.822 251.83V251.932C401.452 252.045 402.021 252.315 402.526 252.741C403.032 253.162 403.435 253.687 403.737 254.318C404.038 254.943 404.191 255.625 404.197 256.364C404.191 257.307 403.935 258.148 403.43 258.886C402.93 259.619 402.234 260.196 401.342 260.616C400.455 261.031 399.43 261.239 398.265 261.239ZM398.265 259.364C399.055 259.364 399.737 259.236 400.31 258.98C400.884 258.724 401.327 258.364 401.64 257.898C401.952 257.432 402.112 256.886 402.117 256.261C402.112 255.602 401.941 255.02 401.606 254.514C401.271 254.009 400.813 253.611 400.234 253.321C399.66 253.031 399.004 252.886 398.265 252.886C397.521 252.886 396.856 253.031 396.271 253.321C395.691 253.611 395.234 254.009 394.898 254.514C394.569 255.02 394.407 255.602 394.413 256.261C394.407 256.886 394.558 257.432 394.864 257.898C395.177 258.364 395.623 258.724 396.202 258.98C396.782 259.236 397.469 259.364 398.265 259.364ZM398.265 251.08C398.89 251.08 399.444 250.955 399.927 250.705C400.415 250.455 400.799 250.105 401.077 249.656C401.356 249.207 401.498 248.682 401.504 248.08C401.498 247.489 401.359 246.974 401.086 246.537C400.813 246.094 400.435 245.753 399.952 245.514C399.469 245.27 398.907 245.148 398.265 245.148C397.612 245.148 397.04 245.27 396.552 245.514C396.063 245.753 395.685 246.094 395.418 246.537C395.151 246.974 395.021 247.489 395.026 248.08C395.021 248.682 395.154 249.207 395.427 249.656C395.705 250.105 396.089 250.455 396.577 250.705C397.066 250.955 397.629 251.08 398.265 251.08ZM413.02 243.307C413.736 243.312 414.452 243.449 415.168 243.716C415.884 243.983 416.537 244.426 417.128 245.045C417.719 245.659 418.193 246.497 418.551 247.56C418.909 248.622 419.088 249.955 419.088 251.557C419.088 253.108 418.94 254.486 418.645 255.69C418.355 256.889 417.935 257.901 417.384 258.724C416.838 259.548 416.173 260.173 415.389 260.599C414.611 261.026 413.73 261.239 412.747 261.239C411.77 261.239 410.898 261.045 410.131 260.659C409.369 260.267 408.744 259.724 408.256 259.031C407.773 258.332 407.463 257.523 407.327 256.602H409.406C409.594 257.403 409.966 258.065 410.523 258.588C411.085 259.105 411.827 259.364 412.747 259.364C414.094 259.364 415.156 258.776 415.935 257.599C416.719 256.423 417.111 254.761 417.111 252.614H416.974C416.656 253.091 416.278 253.503 415.841 253.849C415.403 254.196 414.918 254.463 414.384 254.651C413.849 254.838 413.281 254.932 412.679 254.932C411.679 254.932 410.761 254.685 409.926 254.19C409.097 253.69 408.432 253.006 407.932 252.136C407.438 251.261 407.19 250.261 407.19 249.136C407.19 248.068 407.429 247.091 407.906 246.205C408.389 245.312 409.065 244.602 409.935 244.074C410.81 243.545 411.838 243.29 413.02 243.307ZM413.02 245.182C412.304 245.182 411.659 245.361 411.085 245.719C410.517 246.071 410.065 246.548 409.73 247.151C409.401 247.747 409.236 248.409 409.236 249.136C409.236 249.864 409.395 250.526 409.713 251.122C410.037 251.713 410.477 252.185 411.034 252.537C411.597 252.884 412.236 253.057 412.952 253.057C413.491 253.057 413.994 252.952 414.46 252.741C414.926 252.526 415.332 252.233 415.679 251.864C416.031 251.489 416.307 251.065 416.506 250.594C416.705 250.116 416.804 249.619 416.804 249.102C416.804 248.42 416.639 247.781 416.31 247.185C415.986 246.588 415.537 246.105 414.963 245.736C414.395 245.366 413.747 245.182 413.02 245.182ZM434.781 261.239C433.61 261.239 432.576 261.031 431.678 260.616C430.786 260.196 430.09 259.619 429.59 258.886C429.09 258.148 428.843 257.307 428.849 256.364C428.843 255.625 428.988 254.943 429.283 254.318C429.579 253.687 429.982 253.162 430.494 252.741C431.011 252.315 431.587 252.045 432.224 251.932V251.83C431.388 251.614 430.724 251.145 430.229 250.423C429.735 249.696 429.491 248.869 429.496 247.943C429.491 247.057 429.715 246.264 430.17 245.565C430.624 244.866 431.249 244.315 432.045 243.912C432.846 243.509 433.758 243.307 434.781 243.307C435.792 243.307 436.695 243.509 437.491 243.912C438.286 244.315 438.911 244.866 439.366 245.565C439.826 246.264 440.059 247.057 440.065 247.943C440.059 248.869 439.806 249.696 439.306 250.423C438.812 251.145 438.156 251.614 437.337 251.83V251.932C437.968 252.045 438.536 252.315 439.042 252.741C439.548 253.162 439.951 253.687 440.252 254.318C440.553 254.943 440.707 255.625 440.712 256.364C440.707 257.307 440.451 258.148 439.945 258.886C439.445 259.619 438.749 260.196 437.857 260.616C436.971 261.031 435.945 261.239 434.781 261.239ZM434.781 259.364C435.57 259.364 436.252 259.236 436.826 258.98C437.4 258.724 437.843 258.364 438.156 257.898C438.468 257.432 438.627 256.886 438.633 256.261C438.627 255.602 438.457 255.02 438.121 254.514C437.786 254.009 437.329 253.611 436.749 253.321C436.175 253.031 435.519 252.886 434.781 252.886C434.036 252.886 433.371 253.031 432.786 253.321C432.207 253.611 431.749 254.009 431.414 254.514C431.085 255.02 430.923 255.602 430.928 256.261C430.923 256.886 431.073 257.432 431.38 257.898C431.692 258.364 432.138 258.724 432.718 258.98C433.298 259.236 433.985 259.364 434.781 259.364ZM434.781 251.08C435.406 251.08 435.96 250.955 436.442 250.705C436.931 250.455 437.315 250.105 437.593 249.656C437.871 249.207 438.013 248.682 438.019 248.08C438.013 247.489 437.874 246.974 437.602 246.537C437.329 246.094 436.951 245.753 436.468 245.514C435.985 245.27 435.423 245.148 434.781 245.148C434.127 245.148 433.556 245.27 433.067 245.514C432.579 245.753 432.201 246.094 431.934 246.537C431.667 246.974 431.536 247.489 431.542 248.08C431.536 248.682 431.67 249.207 431.942 249.656C432.221 250.105 432.604 250.455 433.093 250.705C433.582 250.955 434.144 251.08 434.781 251.08ZM449.536 243.307C450.251 243.312 450.967 243.449 451.683 243.716C452.399 243.983 453.053 244.426 453.643 245.045C454.234 245.659 454.709 246.497 455.067 247.56C455.425 248.622 455.604 249.955 455.604 251.557C455.604 253.108 455.456 254.486 455.161 255.69C454.871 256.889 454.45 257.901 453.899 258.724C453.354 259.548 452.689 260.173 451.905 260.599C451.126 261.026 450.246 261.239 449.263 261.239C448.286 261.239 447.413 261.045 446.646 260.659C445.885 260.267 445.26 259.724 444.771 259.031C444.288 258.332 443.979 257.523 443.842 256.602H445.922C446.109 257.403 446.482 258.065 447.038 258.588C447.601 259.105 448.342 259.364 449.263 259.364C450.609 259.364 451.672 258.776 452.45 257.599C453.234 256.423 453.626 254.761 453.626 252.614H453.49C453.172 253.091 452.794 253.503 452.357 253.849C451.919 254.196 451.433 254.463 450.899 254.651C450.365 254.838 449.797 254.932 449.195 254.932C448.195 254.932 447.277 254.685 446.442 254.19C445.612 253.69 444.947 253.006 444.447 252.136C443.953 251.261 443.706 250.261 443.706 249.136C443.706 248.068 443.945 247.091 444.422 246.205C444.905 245.312 445.581 244.602 446.45 244.074C447.325 243.545 448.354 243.29 449.536 243.307ZM449.536 245.182C448.82 245.182 448.175 245.361 447.601 245.719C447.033 246.071 446.581 246.548 446.246 247.151C445.916 247.747 445.751 248.409 445.751 249.136C445.751 249.864 445.911 250.526 446.229 251.122C446.553 251.713 446.993 252.185 447.55 252.537C448.112 252.884 448.751 253.057 449.467 253.057C450.007 253.057 450.51 252.952 450.976 252.741C451.442 252.526 451.848 252.233 452.195 251.864C452.547 251.489 452.822 251.065 453.021 250.594C453.22 250.116 453.32 249.619 453.32 249.102C453.32 248.42 453.155 247.781 452.825 247.185C452.501 246.588 452.053 246.105 451.479 245.736C450.911 245.366 450.263 245.182 449.536 245.182ZM471.296 261.239C470.126 261.239 469.092 261.031 468.194 260.616C467.302 260.196 466.606 259.619 466.106 258.886C465.606 258.148 465.359 257.307 465.364 256.364C465.359 255.625 465.504 254.943 465.799 254.318C466.094 253.687 466.498 253.162 467.009 252.741C467.526 252.315 468.103 252.045 468.739 251.932V251.83C467.904 251.614 467.239 251.145 466.745 250.423C466.251 249.696 466.006 248.869 466.012 247.943C466.006 247.057 466.231 246.264 466.685 245.565C467.14 244.866 467.765 244.315 468.56 243.912C469.362 243.509 470.273 243.307 471.296 243.307C472.308 243.307 473.211 243.509 474.006 243.912C474.802 244.315 475.427 244.866 475.881 245.565C476.342 246.264 476.575 247.057 476.58 247.943C476.575 248.869 476.322 249.696 475.822 250.423C475.327 251.145 474.671 251.614 473.853 251.83V251.932C474.484 252.045 475.052 252.315 475.558 252.741C476.063 253.162 476.467 253.687 476.768 254.318C477.069 254.943 477.222 255.625 477.228 256.364C477.222 257.307 476.967 258.148 476.461 258.886C475.961 259.619 475.265 260.196 474.373 260.616C473.487 261.031 472.461 261.239 471.296 261.239ZM471.296 259.364C472.086 259.364 472.768 259.236 473.342 258.98C473.915 258.724 474.359 258.364 474.671 257.898C474.984 257.432 475.143 256.886 475.148 256.261C475.143 255.602 474.972 255.02 474.637 254.514C474.302 254.009 473.844 253.611 473.265 253.321C472.691 253.031 472.035 252.886 471.296 252.886C470.552 252.886 469.887 253.031 469.302 253.321C468.722 253.611 468.265 254.009 467.93 254.514C467.6 255.02 467.438 255.602 467.444 256.261C467.438 256.886 467.589 257.432 467.896 257.898C468.208 258.364 468.654 258.724 469.234 258.98C469.813 259.236 470.501 259.364 471.296 259.364ZM471.296 251.08C471.921 251.08 472.475 250.955 472.958 250.705C473.447 250.455 473.83 250.105 474.109 249.656C474.387 249.207 474.529 248.682 474.535 248.08C474.529 247.489 474.39 246.974 474.117 246.537C473.844 246.094 473.467 245.753 472.984 245.514C472.501 245.27 471.938 245.148 471.296 245.148C470.643 245.148 470.072 245.27 469.583 245.514C469.094 245.753 468.717 246.094 468.45 246.537C468.183 246.974 468.052 247.489 468.058 248.08C468.052 248.682 468.185 249.207 468.458 249.656C468.737 250.105 469.12 250.455 469.609 250.705C470.097 250.955 470.66 251.08 471.296 251.08ZM486.051 243.307C486.767 243.312 487.483 243.449 488.199 243.716C488.915 243.983 489.568 244.426 490.159 245.045C490.75 245.659 491.224 246.497 491.582 247.56C491.94 248.622 492.119 249.955 492.119 251.557C492.119 253.108 491.972 254.486 491.676 255.69C491.386 256.889 490.966 257.901 490.415 258.724C489.869 259.548 489.205 260.173 488.42 260.599C487.642 261.026 486.761 261.239 485.778 261.239C484.801 261.239 483.929 261.045 483.162 260.659C482.401 260.267 481.776 259.724 481.287 259.031C480.804 258.332 480.494 257.523 480.358 256.602H482.438C482.625 257.403 482.997 258.065 483.554 258.588C484.116 259.105 484.858 259.364 485.778 259.364C487.125 259.364 488.188 258.776 488.966 257.599C489.75 256.423 490.142 254.761 490.142 252.614H490.006C489.688 253.091 489.31 253.503 488.872 253.849C488.435 254.196 487.949 254.463 487.415 254.651C486.881 254.838 486.313 254.932 485.71 254.932C484.71 254.932 483.793 254.685 482.957 254.19C482.128 253.69 481.463 253.006 480.963 252.136C480.469 251.261 480.222 250.261 480.222 249.136C480.222 248.068 480.46 247.091 480.938 246.205C481.42 245.312 482.097 244.602 482.966 244.074C483.841 243.545 484.869 243.29 486.051 243.307ZM486.051 245.182C485.335 245.182 484.69 245.361 484.116 245.719C483.548 246.071 483.097 246.548 482.761 247.151C482.432 247.747 482.267 248.409 482.267 249.136C482.267 249.864 482.426 250.526 482.744 251.122C483.068 251.713 483.509 252.185 484.065 252.537C484.628 252.884 485.267 253.057 485.983 253.057C486.523 253.057 487.026 252.952 487.491 252.741C487.957 252.526 488.364 252.233 488.71 251.864C489.063 251.489 489.338 251.065 489.537 250.594C489.736 250.116 489.835 249.619 489.835 249.102C489.835 248.42 489.67 247.781 489.341 247.185C489.017 246.588 488.568 246.105 487.994 245.736C487.426 245.366 486.778 245.182 486.051 245.182Z" fill="white"/>
<path d="M271.979 98.6385V98.4376L277.506 93.5097C286.251 85.2334 293.436 76.6613 293.436 65.8234C293.436 54.299 286.068 45.8218 272.443 45.8218C264.434 45.8218 257.348 48.7796 252.931 52.4294L256.889 63.072C260.017 60.6053 264.528 57.8484 269.685 57.8484C276.589 57.8484 279.441 61.9894 279.441 67.2074C279.352 74.6913 272.996 81.8849 259.83 94.4975L252.191 101.887V110.95H294.625V98.6385H271.979Z" fill="#F47920"/>
<path d="M461.077 93.8112C456.196 93.8112 452.792 97.5503 452.792 102.975C452.792 108.399 456.196 112.038 460.889 112.038C465.952 112.038 469.269 108.193 469.269 102.975C469.175 97.461 465.864 93.8112 461.072 93.8112H461.077Z" fill="#F47920"/>
<path d="M477.742 41V110.955H491.732V41H477.742Z" fill="#F47920"/>
<path d="M526.71 82.2812L542.822 62.7651H525.97L516.86 77.2529C515.755 79.0276 514.644 81.0032 513.633 83.0681H513.455V41H499.46V110.955H513.455V95.8816L516.949 91.1547L527.904 110.955H545.122L526.71 82.2868V82.2812Z" fill="#F47920"/>
<path d="M89.5189 99.5259C77.0931 99.5259 69.7253 91.1547 69.7253 77.85C69.7253 63.0721 78.3811 55.8728 89.4303 55.8728C94.4934 55.8728 98.4511 57.0504 101.209 58.334L104.156 46.5138C101.674 45.0349 96.1463 43.5616 88.8723 43.5616C70.0955 43.5616 55 56.0737 55 78.7374C55 97.6563 66.044 112.038 87.4958 112.038C94.947 112.038 100.844 110.464 103.326 109.181L101.303 97.3605C98.4459 98.6441 93.8468 99.5259 89.5189 99.5259Z" fill="#262261"/>
<path d="M111.889 41V110.955H125.884V41H111.889Z" fill="#262261"/>
<path d="M144.296 41.8818C139.78 41.8818 136.839 45.1354 136.839 49.3712C136.839 53.607 139.697 56.8606 144.113 56.8606C148.811 56.8606 151.663 53.5122 151.663 49.3712C151.575 45.1354 148.816 41.8818 144.301 41.8818H144.296ZM137.209 62.7707V110.955H151.199V62.7707H137.209Z" fill="#262261"/>
<path d="M186.553 100.218C179.743 100.218 174.216 95.4854 174.216 86.7179C174.127 78.8323 178.908 73.218 186.276 73.218C189.958 73.218 192.44 73.9044 194.098 74.6913L196.309 63.5632C193.363 62.3801 189.311 61.688 185.63 61.688C168.876 61.688 159.855 73.218 159.855 87.3095C159.855 102.383 169.152 111.943 183.695 111.943C189.035 111.943 193.733 110.955 196.22 109.677L194.562 98.6441C192.445 99.6263 189.869 100.218 186.553 100.218Z" fill="#262261"/>
<path d="M231.198 82.2812L247.305 62.7651H230.462L221.348 77.2529C220.248 79.0276 219.137 81.0032 218.125 83.0681H217.938V41H203.948V110.955H217.938V95.8816L221.442 91.1547L232.397 110.955H249.615L231.203 82.2868L231.198 82.2812Z" fill="#262261"/>
<path d="M317 104.253H317.187C320.311 109.968 325.473 112.038 330.713 112.038C341.027 112.038 351.247 103.371 351.247 86.0259C351.336 71.2479 343.515 61.688 332.747 61.688C326.485 61.688 321.786 64.3557 319.117 68.4854H318.939V41H304.944V96.568C304.944 101.981 304.756 107.797 304.579 110.95H316.447L317.005 104.247L317 104.253ZM318.934 83.3639C318.934 82.3761 319.023 81.4943 319.211 80.6014C320.133 76.2651 323.627 73.2124 327.407 73.2124C333.946 73.2124 337.075 79.1169 337.075 86.6063C337.075 95.2789 333.388 100.207 327.407 100.207C323.356 100.207 320.133 97.0536 319.211 93.1079C319.023 92.321 318.934 91.4337 318.934 90.4515V83.3583V83.3639Z" fill="#262261"/>
<path d="M375.645 112.038C383.743 112.038 387.977 107.11 389.729 104.158H390.006L390.647 110.955H402.796C402.619 106.915 402.431 101.792 402.431 95.4854V62.7763H388.436V91.4505C388.436 92.7341 388.248 93.8167 387.883 94.6985C387.06 97.0704 384.755 99.9277 380.886 99.9277C375.917 99.9277 373.799 95.6863 373.799 88.688V62.7708H359.804V91.0487C359.804 105.933 366.437 112.038 375.645 112.038Z" fill="#262261"/>
<path d="M441.002 62.7707L435.386 86.4221C434.739 89.2795 434.004 92.8233 433.451 95.4798H433.081C432.529 92.9238 431.611 89.2795 430.87 86.517L424.154 62.7651H408.595L425.166 106.904C418.898 117.691 408.026 133.167 390.433 144.68C316.546 193.032 204.485 118.891 203.948 120.392C203.379 121.966 323.789 209.735 402.551 155.116C418.585 143.999 428.847 129.785 435.157 118.992C435.188 118.941 435.219 118.886 435.25 118.83C435.49 118.422 435.725 118.015 435.949 117.613C435.96 117.596 435.965 117.585 435.975 117.569C437.263 115.28 438.572 112.546 439.969 109.22C441.638 105.246 443.432 100.424 445.418 94.492L455.91 62.7595H440.997L441.002 62.7707Z" fill="#262261"/>
</svg>
