<?xml version="1.0" encoding="UTF-8"?>
<svg id="Layer_2" data-name="Layer 2" xmlns="http://www.w3.org/2000/svg" viewBox="0 0 939.95 236.54">
  <defs>
    <style>
      .cls-1 {
        fill: #f47920;
      }

      .cls-2 {
        fill: #262261;
      }
    </style>
  </defs>
  <g id="Layer_1-2" data-name="Layer 1">
    <g>
      <path class="cls-1" d="M416.12,103.28v-.36l10.6-8.83c16.77-14.83,30.55-30.19,30.55-49.61,0-20.65-14.13-35.84-40.26-35.84-15.36,0-28.95,5.3-37.42,11.84l7.59,19.07c6-4.42,14.65-9.36,24.54-9.36,13.24,0,18.71,7.42,18.71,16.77-.17,13.41-12.36,26.3-37.61,48.9l-14.65,13.24v16.24h81.38v-22.06h-43.43Z"/>
      <g>
        <path class="cls-1" d="M778.77,94.63c-9.36,0-15.89,6.7-15.89,16.42s6.53,16.24,15.53,16.24c9.71,0,16.07-6.89,16.07-16.24-.18-9.88-6.53-16.42-15.72-16.42Z"/>
        <path class="cls-1" d="M810.73,0v125.35h26.83V0h-26.83Z"/>
        <path class="cls-1" d="M904.64,73.97l30.9-34.97h-32.32l-17.47,25.96c-2.12,3.18-4.25,6.72-6.19,10.42h-.34V0h-26.84v125.35h26.84v-27.01l6.7-8.47,21.01,35.48h33.02l-35.31-51.37Z"/>
      </g>
      <g>
        <path class="cls-2" d="M66.2,104.87c-23.83,0-37.96-15-37.96-38.84,0-26.48,16.6-39.38,37.79-39.38,9.71,0,17.3,2.11,22.59,4.41l5.65-21.18c-4.76-2.65-15.36-5.29-29.31-5.29C28.95,4.59,0,27.01,0,67.62c0,33.9,21.18,59.67,62.32,59.67,14.29,0,25.6-2.82,30.36-5.12l-3.88-21.18c-5.48,2.3-14.3,3.88-22.6,3.88Z"/>
        <path class="cls-2" d="M109.1,0v125.35h26.84V0h-26.84Z"/>
        <path class="cls-2" d="M171.25,1.58c-8.66,0-14.3,5.83-14.3,13.42s5.48,13.42,13.95,13.42c9.01,0,14.48-6,14.48-13.42-.17-7.59-5.46-13.42-14.12-13.42ZM157.66,39.01v86.34h26.83V39.01h-26.83Z"/>
        <path class="cls-2" d="M252.29,106.11c-13.06,0-23.66-8.48-23.66-24.19-.17-14.13,9-24.19,23.13-24.19,7.06,0,11.82,1.23,15,2.64l4.24-19.94c-5.65-2.12-13.42-3.36-20.48-3.36-32.13,0-49.43,20.66-49.43,45.91,0,27.01,17.83,44.14,45.72,44.14,10.24,0,19.25-1.77,24.02-4.06l-3.18-19.77c-4.06,1.76-9,2.82-15.36,2.82Z"/>
        <path class="cls-2" d="M337.91,73.97l30.89-34.97h-32.3l-17.48,25.96c-2.11,3.18-4.24,6.72-6.18,10.42h-.36V0h-26.83v125.35h26.83v-27.01l6.72-8.47,21.01,35.48h33.02l-35.31-51.37Z"/>
      </g>
      <g>
        <path class="cls-2" d="M502.46,113.34h.36c5.99,10.24,15.89,13.95,25.94,13.95,19.78,0,39.38-15.53,39.38-46.61.17-26.48-14.83-43.61-35.48-43.61-12.01,0-21.02,4.78-26.14,12.18h-.34V0h-26.84v99.57c0,9.7-.36,20.12-.7,25.77h22.76l1.07-12.01ZM506.17,75.91c0-1.77.17-3.35.53-4.95,1.77-7.77,8.47-13.24,15.72-13.24,12.54,0,18.54,10.58,18.54,24,0,15.54-7.07,24.37-18.54,24.37-7.77,0-13.95-5.65-15.72-12.72-.36-1.41-.53-3-.53-4.76v-12.71Z"/>
        <path class="cls-2" d="M614.93,127.29c15.53,0,23.65-8.83,27.01-14.12h.53l1.23,12.18h23.3c-.34-7.24-.7-16.42-.7-27.72v-58.61h-26.84v51.38c0,2.3-.36,4.24-1.06,5.82-1.58,4.25-6,9.37-13.42,9.37-9.53,0-13.59-7.6-13.59-20.14v-46.44h-26.84v50.67c0,26.67,12.72,37.61,30.38,37.61Z"/>
        <path class="cls-2" d="M740.27,39.01l-10.77,42.38c-1.24,5.12-2.65,11.47-3.71,16.23h-.71c-1.06-4.58-2.82-11.11-4.24-16.06l-12.88-42.56h-29.84l31.78,79.09h0s0,0,0,0c-12.02,19.33-32.87,47.06-66.61,67.69-141.7,86.64-356.61-46.21-357.64-43.52-1.09,2.82,229.83,160.09,380.88,62.22,30.75-19.92,50.43-45.39,62.53-64.73.06-.09.12-.19.18-.29.46-.73.91-1.46,1.34-2.18.02-.03.03-.05.05-.08,2.47-4.1,4.98-9,7.66-14.96,3.2-7.12,6.64-15.76,10.45-26.39l20.12-56.86h-28.6Z"/>
      </g>
    </g>
  </g>
</svg>